<?xml version="1.0" encoding="utf-8"?>
<!-- Generator: Adobe Illustrator 25.2.1, SVG Export Plug-In . SVG Version: 6.00 Build 0)  -->
<svg version="1.1" id="Capa_1" xmlns="http://www.w3.org/2000/svg" xmlns:xlink="http://www.w3.org/1999/xlink" x="0px" y="0px"
	 viewBox="0 0 32 32" style="enable-background:new 0 0 32 32;" xml:space="preserve">
<style type="text/css">
	.st0{fill:#00AAAA;}
	.st1{fill:#FFFFFF;}
	.st2{fill:#11726B;}
</style>
<g>
	<g>
		<circle class="st0" cx="16" cy="16" r="16"/>
		<path class="st1" d="M26.3,21.5c-0.2,0-0.4,0-0.6,0c-0.2,0.1-0.4,0-0.5-0.1l-2.3-2.3c0,0-0.1-0.1-0.1-0.1l-3.2-4.9
			c-0.1-0.1,0-0.2,0-0.3l0.4-0.4l2.7-2.7c0.1-0.1,0.3-0.2,0.5-0.1c0.2,0.1,0.5,0.1,0.7,0c0.5-0.1,0.9-0.6,1-1.1
			c0.1-0.9-0.6-1.7-1.6-1.6c-0.6,0.1-1,0.5-1.1,1.1c0,0.2,0,0.4,0,0.6c0.1,0.2,0,0.4-0.1,0.5L19.6,13l-0.4,0.4
			c-0.1,0.1-0.2,0.1-0.3,0l-2.5-3.7c-0.1-0.1-0.2-0.3-0.2-0.5V6.2c0-0.2,0.1-0.4,0.3-0.4c0.5-0.3,0.8-0.8,0.7-1.4
			c-0.1-0.5-0.5-1-1.1-1.1c-0.9-0.2-1.6,0.5-1.6,1.3c0,0.5,0.3,1,0.7,1.2c0.2,0.1,0.3,0.3,0.3,0.4v2.9c0,0.2-0.1,0.4-0.2,0.5
			L13,13.3c-0.1,0.1-0.2,0.1-0.3,0l-3-3C9.7,10.2,9.6,10,9.7,9.9c0.1-0.2,0.1-0.4,0-0.6c-0.1-0.6-0.5-1-1.1-1.1
			C7.7,8,6.9,8.8,7.1,9.7c0.1,0.5,0.5,1,1,1.1c0.3,0.1,0.5,0,0.7,0c0.2-0.1,0.4,0,0.5,0.1l6.1,6.1c0.1,0.1,0.2,0.3,0.2,0.5V19h-5.3
			c-0.1,0-0.2-0.1-0.1-0.2l2.2-3.4c0.1-0.1,0.1-0.3,0-0.4c-0.1-0.2-0.5-0.2-0.6,0l-2.7,4c0,0-0.1,0.1-0.1,0.1l-2.3,2.3
			c-0.1,0.1-0.3,0.2-0.5,0.1c-0.2-0.1-0.4-0.1-0.6,0c-0.6,0.1-1,0.5-1.1,1.1c-0.1,0.9,0.6,1.7,1.6,1.6c0.6-0.1,1-0.5,1.1-1.1
			c0-0.2,0-0.4,0-0.6c-0.1-0.2,0-0.4,0.1-0.5l2-2c0.2-0.2,0.4-0.3,0.6-0.3h5.7v3c0,0.2-0.1,0.3-0.3,0.4c-0.2,0.1-0.3,0.2-0.4,0.4
			c-0.2,0.2-0.3,0.5-0.3,0.8c0,0.7,0.6,1.3,1.3,1.3c0.8,0,1.4-0.6,1.4-1.3c0-0.3-0.1-0.6-0.3-0.8c-0.1-0.2-0.3-0.3-0.4-0.4
			c-0.2-0.1-0.3-0.2-0.3-0.4v-5.2c0-0.2,0.1-0.4,0.2-0.5l0.5-0.5l1.2-1.2c0.1-0.1,0.1-0.3,0.1-0.4c-0.1-0.2-0.4-0.3-0.6-0.1
			l-1.6,1.6c-0.1,0.1-0.2,0.1-0.3,0l-2.3-2.3c-0.1-0.1-0.1-0.2,0-0.3l2.4-3.5c0.1-0.1,0.2-0.1,0.3,0l5.7,8.5c0.1,0.1,0,0.2-0.1,0.2
			h-4.2c-0.2,0-0.3,0.1-0.4,0.3c-0.1,0.2,0.1,0.4,0.3,0.4h4.7c0.2,0,0.5,0.1,0.6,0.3l2,2c0.1,0.1,0.2,0.3,0.1,0.5
			c-0.1,0.2-0.1,0.4,0,0.6c0.1,0.6,0.5,1,1.1,1.1c0.9,0.1,1.7-0.6,1.6-1.6C27.3,22.1,26.9,21.6,26.3,21.5L26.3,21.5z M23.4,8.9
			c0.5-0.1,0.9,0.3,0.8,0.8c-0.1,0.2-0.2,0.4-0.4,0.4c-0.5,0.1-0.9-0.3-0.8-0.8C23.1,9.1,23.2,8.9,23.4,8.9L23.4,8.9z M8.6,10.1
			c-0.5,0.1-0.9-0.3-0.8-0.8C7.8,9.1,8,8.9,8.2,8.9C8.7,8.7,9.1,9.2,9,9.7C8.9,9.9,8.8,10,8.6,10.1L8.6,10.1z M6.1,23.5
			c-0.5,0.1-0.9-0.3-0.8-0.8c0.1-0.2,0.2-0.4,0.4-0.4c0.5-0.1,0.9,0.3,0.8,0.8C6.5,23.3,6.3,23.4,6.1,23.5L6.1,23.5z M16.6,24
			c0,0.1,0.1,0.2,0.1,0.3c0,0.4-0.3,0.7-0.7,0.6c-0.2,0-0.4-0.2-0.5-0.3c-0.1-0.2-0.1-0.4,0-0.6c0.1-0.2,0.3-0.4,0.6-0.4
			C16.2,23.7,16.5,23.8,16.6,24L16.6,24z M15.4,4.7c-0.1-0.5,0.3-0.9,0.8-0.8c0.2,0.1,0.4,0.2,0.4,0.4c0.1,0.5-0.3,0.9-0.8,0.8
			C15.6,5.1,15.4,4.9,15.4,4.7L15.4,4.7z M26.3,23.5c-0.5,0.1-0.9-0.3-0.8-0.8c0.1-0.2,0.2-0.4,0.4-0.4c0.5-0.1,0.9,0.3,0.8,0.8
			C26.7,23.3,26.5,23.4,26.3,23.5"/>
	</g>
	<path class="st2" d="M16,0.6C7.4,0.6,0.5,7.5,0.5,16S7.4,31.5,16,31.5S31.4,24.6,31.4,16S24.5,0.6,16,0.6z M16,30.5
		C8,30.5,1.5,24,1.5,16S8,1.6,16,1.6S30.4,8,30.4,16S24,30.5,16,30.5z"/>
</g>
</svg>
